<svg xmlns="http://www.w3.org/2000/svg" version="1.1" xmlns:xlink="http://www.w3.org/1999/xlink" xmlns:svgjs="http://svgjs.dev/svgjs" width="1500" height="1500" viewBox="0 0 1500 1500"><g transform="matrix(1,0,0,1,0,0)"><svg viewBox="0 0 280 280" data-background-color="#ffffff" preserveAspectRatio="xMidYMid meet" height="1500" width="1500" xmlns="http://www.w3.org/2000/svg" xmlns:xlink="http://www.w3.org/1999/xlink"><g id="tight-bounds" transform="matrix(1,0,0,1,0,0)"><svg viewBox="0 0 280 280" height="280" width="280"><g><svg viewBox="0 0 280 280" height="280" width="280"><g><svg viewBox="0 0 280 280" height="280" width="280"><g id="textblocktransform"><svg viewBox="0 0 280 280" height="280" width="280" id="textblock"><g><svg viewBox="0 0 280 280" height="280" width="280"><g transform="matrix(1,0,0,1,90.50548180511458,90.50252531694167)"><svg viewBox="0 0 98.98903638977082 98.99494936611664" height="98.99494936611664" width="98.98903638977082"><g id="icon-0"><svg xmlns="http://www.w3.org/2000/svg" xmlns:xlink="http://www.w3.org/1999/xlink" version="1.1" x="0" y="0" viewBox="23.465249941387935 23.457 92.07050029306035 92.076" enable-background="new 0 0 139 139" xml:space="preserve" height="98.99494936611664" width="98.98903638977082" class="icon-xg-0" data-fill-palette-color="accent" id="xg-0"><path d="M113.138 92.452c3.198-3.201 3.197-8.409-0.003-11.609v-0.001c-1.398-1.396-3.179-2.183-5.007-2.358l3.239-3.24c1.806-1.805 2.801-4.205 2.801-6.758s-0.995-4.954-2.801-6.76c-1.805-1.805-4.205-2.799-6.758-2.799h-0.001c-2.554 0-4.954 0.995-6.759 2.801l-12.8 12.8L64.471 53.95l12.8-12.801c3.726-3.728 3.726-9.793 0-13.52-3.727-3.727-9.791-3.726-13.518 0l-3.238 3.238c-0.177-1.828-0.963-3.607-2.359-5.004-1.551-1.551-3.612-2.405-5.805-2.406-0.001 0-0.001 0-0.002 0-2.192 0-4.253 0.854-5.803 2.404l-4.825 4.824-6.625-6.625L24.064 35.093l6.625 6.625-4.825 4.824c-3.199 3.201-3.198 8.409 0.001 11.611 1.359 1.359 3.11 2.182 5 2.364l-3.233 3.233c-1.806 1.805-2.8 4.205-2.8 6.759s0.994 4.955 2.799 6.761c1.805 1.805 4.206 2.8 6.76 2.8 2.554 0 4.955-0.994 6.76-2.8l12.544-12.544 20.577 20.577L61.729 97.847h0c-1.805 1.806-2.799 4.207-2.8 6.761 0 2.555 0.995 4.955 2.8 6.759 1.863 1.863 4.312 2.795 6.759 2.795 2.448 0 4.896-0.932 6.761-2.795l3.232-3.232c0.182 1.889 1.006 3.64 2.365 4.999 1.602 1.6 3.704 2.399 5.808 2.399 2.102 0 4.203-0.799 5.803-2.398l4.824-4.824 6.625 6.625 11.031-11.031-6.626-6.627L113.138 92.452zM27.988 56.032c-2.031-2.032-2.032-5.338-0.002-7.369l6.945-6.945-6.625-6.625 6.789-6.789 6.625 6.625 6.947-6.945c0.983-0.983 2.291-1.525 3.681-1.525 0 0 0.001 0 0.001 0 1.392 0 2.7 0.543 3.684 1.527 2.03 2.03 2.029 5.335-0.001 7.365l-20.68 20.68c-0.984 0.984-2.293 1.526-3.684 1.526 0 0 0 0 0 0C30.278 57.557 28.971 57.016 27.988 56.032zM51.574 62.604L39.03 75.149c-1.239 1.238-2.887 1.921-4.639 1.921-1.753 0-3.4-0.683-4.638-1.921-1.239-1.239-1.921-2.887-1.921-4.64 0-1.752 0.683-3.398 1.921-4.638l36.122-36.121c1.279-1.278 2.958-1.917 4.638-1.917s3.359 0.639 4.638 1.917c2.557 2.558 2.557 6.72 0 9.277L58.481 55.697 51.574 62.604 51.574 62.604zM55.817 62.604l0.902-0.902 5.632-5.631 20.577 20.576-3.247 3.248-3.287 3.287L55.817 62.604zM73.127 109.245c-2.559 2.557-6.72 2.558-9.278-0.001-1.238-1.237-1.92-2.884-1.92-4.636 0-1.753 0.683-3.401 1.921-4.641l12.544-12.543h0.001l5.417-5.418 18.159-18.158c1.239-1.239 2.886-1.922 4.638-1.922 0.001 0 0.001 0 0.001 0 1.752 0 3.398 0.682 4.637 1.92 1.239 1.239 1.922 2.887 1.922 4.639 0 1.751-0.683 3.397-1.922 4.637L73.127 109.245zM110.694 103.903l-6.789 6.789-6.625-6.625-6.945 6.945c-2.031 2.031-5.337 2.028-7.368-0.003-0.984-0.982-1.525-2.29-1.525-3.681s0.543-2.699 1.527-3.684l20.68-20.68c1.016-1.016 2.35-1.523 3.684-1.523 1.333 0 2.667 0.508 3.682 1.521 2.03 2.031 2.031 5.336 0.002 7.367l-6.947 6.945L110.694 103.903z" fill="#e88130" data-fill-palette-color="accent"></path></svg></g></svg></g><g id="text-0"><path d="M12.67 80.908l-4.777 13.769 6.399 2.22 4.387-12.646 4.352 1.51-4.388 12.646 11.56 4.01-1.648 4.752-26.663-9.25 6.426-18.521z" fill="#f9f9f9" data-fill-palette-color="primary"></path><path d="M55.647 30.077l-3.268-4.277 4.356-3.329 3.268 4.277zM69.754 48.041l-11.915-15.593 3.876-2.962 11.915 15.593z" fill="#f9f9f9" data-fill-palette-color="primary"></path><path d="M138.174 23.782l-0.732 0.274c-1.884 0.683-3.479 1.089-4.783 1.216v0c-1.257 0.123-2.349 0.104-3.276-0.055-0.927-0.159-1.664-0.412-2.211-0.756-0.553-0.338-1.009-0.796-1.37-1.376-0.354-0.587-0.607-1.166-0.757-1.739-0.15-0.566-0.263-1.24-0.339-2.022v0l-0.887-9.089-3.019 0.295-0.407-4.173 3.019-0.295-0.545-5.587 4.866-0.475 0.545 5.588 7.172-0.7 0.407 4.173-7.172 0.7 0.854 8.757c0.032 0.328 0.119 0.636 0.263 0.926 0.144 0.297 0.354 0.583 0.63 0.86 0.283 0.276 0.681 0.48 1.194 0.613 0.519 0.132 1.123 0.164 1.812 0.097v0c0.354-0.035 1.301-0.262 2.84-0.682v0l0.759-0.216z" fill="#f9f9f9" data-fill-palette-color="primary"></path><path d="M221.008 35.475l-5.717 10.118c-3.858 1.255-8.007 0.628-12.447-1.881v0c-1.89-1.068-3.478-2.286-4.766-3.654-1.284-1.374-2.22-2.763-2.808-4.168-0.594-1.408-0.941-2.863-1.042-4.363-0.101-1.501 0.021-2.933 0.367-4.296 0.346-1.364 0.871-2.668 1.575-3.915v0c0.737-1.305 1.626-2.462 2.667-3.471 1.038-1.003 2.235-1.824 3.591-2.462 1.353-0.632 2.785-1.043 4.296-1.231 1.511-0.188 3.153-0.082 4.926 0.317 1.767 0.397 3.543 1.099 5.327 2.107v0c3.264 1.844 5.787 4.231 7.567 7.158v0l0.412 0.685-3.75 2.396-0.44-0.677c-0.584-0.878-1.401-1.83-2.45-2.855-1.04-1.028-2.183-1.893-3.429-2.597v0c-1.223-0.691-2.512-1.168-3.868-1.433-1.359-0.258-2.681-0.295-3.966-0.111-1.285 0.185-2.495 0.659-3.629 1.423-1.143 0.766-2.072 1.782-2.785 3.045v0c-0.945 1.673-1.358 3.427-1.237 5.263 0.124 1.83 0.751 3.554 1.881 5.173 1.13 1.619 2.664 2.975 4.6 4.069v0c2.118 1.197 4.122 1.7 6.012 1.51v0l2.668-4.721-7.696-4.348 2.172-3.844z" fill="#f9f9f9" data-fill-palette-color="primary"></path><path d="M267.984 92.873v0c1.233 3.046 1.426 5.824 0.579 8.334-0.849 2.504-2.71 4.337-5.581 5.5v0c-3.021 1.223-5.793 1.243-8.315 0.06-2.519-1.191-4.427-3.388-5.723-6.589v0c-1.233-3.046-1.392-5.812-0.478-8.299 0.912-2.493 2.81-4.323 5.694-5.49v0c2.959-1.198 5.677-1.214 8.156-0.051 2.483 1.155 4.372 3.334 5.668 6.535zM263.784 94.236v0c-0.383-0.947-0.921-1.766-1.614-2.456-0.693-0.691-1.556-1.157-2.589-1.399-1.029-0.25-2.083-0.157-3.16 0.279v0c-1.594 0.645-2.714 1.74-3.357 3.283-0.635 1.547-0.596 3.202 0.118 4.965v0c0.653 1.613 1.671 2.767 3.054 3.462 1.377 0.697 2.847 0.729 4.41 0.096v0c0.897-0.363 1.638-0.87 2.223-1.52 0.585-0.65 0.981-1.354 1.189-2.112 0.21-0.752 0.289-1.523 0.237-2.315-0.048-0.8-0.219-1.561-0.511-2.283z" fill="#f9f9f9" data-fill-palette-color="primary"></path><path d="M38.929 195.013l-4.825-13.881-6.445 2.241 4.431 12.747-4.388 1.526-4.432-12.748-11.643 4.048-1.661-4.779 26.866-9.34 6.486 18.66z" fill="#f9f9f9" data-fill-palette-color="primary"></path><path d="M71.541 233.971l3.293-4.309 4.388 3.353-3.292 4.309zM57.796 252.44l12.007-15.713 3.916 2.992-12.006 15.713z" fill="#f9f9f9" data-fill-palette-color="primary"></path><path d="M136.345 279.537l-0.782 0.126c-2.003 0.316-3.659 0.41-4.97 0.281v0c-1.264-0.124-2.338-0.358-3.223-0.702-0.884-0.344-1.568-0.735-2.052-1.174-0.476-0.445-0.834-0.99-1.075-1.635-0.233-0.651-0.368-1.272-0.404-1.862-0.036-0.591-0.016-1.281 0.062-2.07v0l0.9-9.158-3.049-0.3 0.413-4.203 3.049 0.3 0.555-5.638 4.895 0.482-0.555 5.637 7.233 0.711-0.414 4.203-7.232-0.711-0.868 8.827c-0.032 0.328-0.007 0.651 0.077 0.97 0.083 0.319 0.237 0.641 0.462 0.967 0.224 0.333 0.578 0.614 1.062 0.843 0.49 0.231 1.08 0.38 1.769 0.448v0c0.354 0.035 1.337-0.004 2.948-0.116v0l0.786-0.064z" fill="#f9f9f9" data-fill-palette-color="primary"></path><path d="M215.183 239.044l5.75 10.203c-0.925 3.984-3.623 7.236-8.096 9.757v0c-1.908 1.075-3.79 1.808-5.645 2.198-1.852 0.396-3.538 0.482-5.06 0.26-1.521-0.222-2.957-0.682-4.306-1.38-1.346-0.691-2.517-1.544-3.511-2.556-1.001-1.009-1.854-2.141-2.56-3.394v0c-0.739-1.311-1.272-2.681-1.598-4.109-0.329-1.419-0.415-2.878-0.258-4.378 0.157-1.5 0.55-2.952 1.179-4.355 0.628-1.403 1.575-2.762 2.839-4.076 1.261-1.32 2.794-2.488 4.597-3.504v0c3.29-1.854 6.661-2.79 10.114-2.808v0l0.804 0.01 0.119 4.48-0.816 0.032c-1.063 0.044-2.309 0.248-3.738 0.614-1.432 0.375-2.774 0.915-4.026 1.621v0c-1.235 0.696-2.319 1.558-3.252 2.584-0.935 1.036-1.658 2.157-2.167 3.362-0.509 1.205-0.729 2.497-0.661 3.878 0.063 1.384 0.453 2.714 1.173 3.99v0c0.95 1.686 2.246 2.953 3.889 3.801 1.646 0.854 3.462 1.215 5.447 1.084 1.985-0.131 3.955-0.748 5.91-1.85v0c2.143-1.207 3.621-2.677 4.435-4.408v0l-2.682-4.759-7.762 4.374-2.183-3.872z" fill="#f9f9f9" data-fill-palette-color="primary"></path><path d="M248.984 184.362v0c1.246-3.069 3.056-5.214 5.429-6.433 2.371-1.213 5.004-1.232 7.898-0.057v0c3.044 1.236 5.064 3.165 6.059 5.788 0.992 2.629 0.832 5.559-0.479 8.791v0c-1.244 3.063-3.069 5.176-5.477 6.338-2.408 1.162-5.066 1.153-7.973-0.028v0c-2.982-1.211-4.965-3.107-5.948-5.689-0.982-2.582-0.819-5.485 0.491-8.71zM252.981 186.333v0c-0.384 0.946-0.568 1.916-0.551 2.909 0.014 0.985 0.306 1.926 0.877 2.825 0.571 0.899 1.401 1.569 2.49 2.012v0c1.606 0.652 3.182 0.646 4.728-0.017 1.548-0.67 2.684-1.895 3.407-3.675v0c0.657-1.619 0.731-3.166 0.22-4.643-0.51-1.476-1.55-2.533-3.119-3.169v0c-0.903-0.366-1.795-0.518-2.676-0.456-0.879 0.057-1.661 0.287-2.347 0.69-0.677 0.4-1.277 0.903-1.799 1.511-0.522 0.607-0.932 1.279-1.23 2.013z" fill="#f9f9f9" data-fill-palette-color="primary"></path><path d="M2.379 142.413c0-6.001 4.865-10.865 10.866-10.865 6.001 0 10.865 4.865 10.865 10.865 0 6.001-4.865 10.865-10.865 10.866-6.001 0-10.865-4.865-10.866-10.866z" fill="#f9f9f9" data-fill-palette-color="primary"></path><path d="M256.377 142.413c0-6.001 4.865-10.865 10.865-10.865 6.001 0 10.865 4.865 10.866 10.865 0 6.001-4.865 10.865-10.866 10.866-6.001 0-10.865-4.865-10.865-10.866z" fill="#f9f9f9" data-fill-palette-color="primary"></path></g><g id="text-1"></g></svg></g></svg></g></svg></g></svg></g><defs></defs></svg><rect width="280" height="280" fill="none" stroke="none" visibility="hidden"></rect></g></svg></g></svg>